<?xml version="1.0" standalone="no"?><!DOCTYPE svg PUBLIC "-//W3C//DTD SVG 1.1//EN" "http://www.w3.org/Graphics/SVG/1.1/DTD/svg11.dtd"><svg class="icon" width="200px" height="200.00px" viewBox="0 0 1024 1024" version="1.1" xmlns="http://www.w3.org/2000/svg"><path fill="#000000" d="M685.373 347.012c-6.404-6.294-14.85-9.753-23.886-9.753-8.993 0-17.481 3.452-23.845 9.753l-88.78 87.751-88.757-87.709c-6.358-6.294-14.827-9.753-23.845-9.753-8.993 0-17.481 3.452-23.845 9.753-13.166 12.993-13.166 34.141 0 47.139l55.018 54.367h-53.689c-3.601 0-6.527 2.908-6.527 6.444v53.754c0 3.581 2.925 6.466 6.527 6.466h101.399v44.635h-101.399c-3.601 0-6.527 2.889-6.527 6.466v53.773c0 3.581 2.925 6.466 6.527 6.466h101.399v100.22c0 18.39 15.14 33.322 33.741 33.322s33.723-14.932 33.723-33.322v-100.22h101.399c3.623 0 6.551-2.889 6.551-6.466v-53.773c0-3.581-2.925-6.466-6.551-6.466h-101.399v-44.635h101.399c3.623 0 6.551-2.889 6.551-6.466v-53.754c0-3.539-2.925-6.444-6.551-6.444h-53.711l55.056-54.405c13.166-12.993 13.166-34.141 0.023-47.139M961.379 339.809c-22.54-52.655-54.83-99.965-95.9-140.593-41.095-40.611-88.947-72.498-142.26-94.759-55.183-23.087-113.782-34.777-174.193-34.777-60.385 0-119.030 11.69-174.211 34.777-53.287 22.265-101.124 54.153-142.238 94.759-41.072 40.631-73.342 87.938-95.879 140.593-9.245 21.589-16.742 43.982-22.39 66.708l-22.285-49.602c-5.411-12.046-17.526-19.82-30.855-19.82-4.718 0-9.329 0.99-13.67 2.889-8.236 3.623-14.557 10.177-17.776 18.494-3.244 8.298-3.010 17.378 0.655 25.509l69.126 153.797c0.378 0.822 0.754 1.625 1.2 2.443 0.065 0.125 0.105 0.208 0.149 0.292 0.4 0.714 0.801 1.346 1.18 2.004 0.039 0.023 0.084 0.105 0.125 0.17 0.336 0.51 0.698 1.035 1.099 1.536 0.149 0.208 0.315 0.447 0.51 0.698 0.273 0.336 0.525 0.634 0.78 0.948 0.378 0.447 0.78 0.907 1.2 1.346l0.105 0.149 0.609 0.588c0.234 0.208 0.462 0.447 0.676 0.655l0.084 0.084c0.292 0.252 0.588 0.525 0.863 0.78 0.252 0.234 0.484 0.422 0.698 0.609 0.4 0.336 0.863 0.655 1.286 0.99 0.125 0.125 0.252 0.208 0.357 0.292 0.588 0.422 1.2 0.822 1.856 1.286 0.039 0 0.105 0.039 0.149 0.065 0.588 0.4 1.223 0.738 1.856 1.099l0.208 0.125c1.367 0.698 2.803 1.346 4.234 1.894 0.039 0 0.084 0 0.105 0.039 0.609 0.208 1.286 0.422 1.981 0.634l0.208 0.065 0.149 0.039c0.676 0.19 1.262 0.336 1.83 0.462h0.023l0.273 0.065c0.039 0 0.084 0.023 0.149 0.023 0.634 0.149 1.307 0.273 2.004 0.357 0.234 0.039 0.462 0.084 0.714 0.105l0.125 0.023c0.4 0.039 0.801 0.084 1.2 0.125l0.149 0.023c0.292 0.039 0.566 0.065 0.841 0.065 0.422 0.023 0.841 0.065 1.262 0.065h0.084c0.208 0 0.447 0.023 0.676 0.023 0.907 0 1.81-0.065 2.82-0.125l0.065-0.023h0.105c0.925-0.105 1.856-0.234 2.737-0.357 0.17-0.039 0.292-0.084 0.422-0.084 0.925-0.19 1.745-0.378 2.547-0.547 0.125-0.039 0.273-0.065 0.378-0.125 0.023 0 0.039 0 0.065-0.023 0.676-0.19 1.367-0.422 2.020-0.634l0.125-0.065c0.208-0.039 0.4-0.125 0.609-0.208 0.609-0.208 1.2-0.447 1.769-0.698 0.023-0.023 0.039-0.023 0.084-0.039 0.084-0.039 0.19-0.084 0.273-0.149 0.292-0.125 0.525-0.234 0.78-0.357 0.801-0.378 1.494-0.754 2.147-1.157 0.105-0.039 0.208-0.125 0.336-0.17l0.084-0.065c1.83-1.099 3.539-2.317 5.074-3.709l128.125-110.922c13.965-12.135 15.397-33.239 3.137-47.076-6.404-7.205-15.67-11.354-25.381-11.354-8.174 0-16.071 2.925-22.202 8.278l-60.854 52.655c34.016-174.906 191.379-304.682 373.281-304.682 209.555 0 380.057 168.524 380.057 375.681 0 207.132-170.506 375.637-380.057 375.637-90.699 0-178.508-32.078-247.255-90.338-6.111-5.181-13.923-8.044-21.943-8.044-9.879 0-19.228 4.259-25.633 11.667-12.091 13.946-10.447 35.025 3.667 46.991 80.989 68.623 184.387 106.41 291.175 106.41 60.385 0 118.987-11.71 174.193-34.777 53.31-22.285 101.167-54.135 142.26-94.785 41.072-40.611 73.342-87.897 95.9-140.575 23.335-54.55 35.174-112.475 35.174-172.167-0.023-59.713-11.859-117.661-35.199-172.213z" /></svg>