<?xml version="1.0" encoding="utf-8"?>
<!-- Generator: Adobe Illustrator 19.0.0, SVG Export Plug-In . SVG Version: 6.00 Build 0)  -->
<svg version="1.1" id="图层_1" xmlns="http://www.w3.org/2000/svg" xmlns:xlink="http://www.w3.org/1999/xlink" x="0px" y="0px"
	 viewBox="-379 181 200 200" style="enable-background:new -379 181 200 200;" xml:space="preserve">
<style type="text/css">
	.st0{fill:#7F7F7F;}
</style>
<path class="st0" d="M-209.1,287h-36.3c-0.7,0-5.5,0.1-7.1-0.7c-2.7-1.5-3.7-4.8-2.1-7.5l40.2-60.6c1.6-2.6,5.1-3.5,7.8-2
	c2.7,1.5,3.7,4.8,2.1,7.5l-34.1,51.4h36.9c0.7,0,5.5-0.1,7.1,0.7c2.7,1.5,3.7,4.8,2.1,7.5l-44.2,60.6c-1.6,2.6-5.1,3.5-7.8,2
	c-2.7-1.5-3.7-4.8-2.1-7.5L-209.1,287z M-360.7,227.3c-3.3,0-6,2.6-6,6c0,3.3,2.7,6,6,6h103.4c3.3,0,6-2.6,6-6c0-3.3-2.7-6-6-6
	H-360.7z M-360.6,275c-3.3,0-6,2.6-6,6c0,3.3,2.7,6,6,6h83.5c3.3,0,6-2.6,6-6c0-3.3-2.7-6-6-6H-360.6z M-360.7,322.7
	c-3.3,0-5.9,2.6-5.9,6c0,3.3,2.7,6,5.9,6h95.5c3.3,0,5.9-2.6,5.9-6c0-3.3-2.7-6-5.9-6H-360.7z"/>
</svg>
