<?xml version="1.0" encoding="utf-8"?>
<!-- Generator: Adobe Illustrator 19.0.0, SVG Export Plug-In . SVG Version: 6.00 Build 0)  -->
<svg version="1.1" id="图层_1" xmlns="http://www.w3.org/2000/svg" xmlns:xlink="http://www.w3.org/1999/xlink" x="0px" y="0px"
	 viewBox="-379 181 200 200" style="enable-background:new -379 181 200 200;" xml:space="preserve">
<style type="text/css">
	.st0{fill:#EF8033;}
</style>
<path class="st0" d="M-219.2,362.5h-84.1c-3.1,0-5.6-2.5-5.6-5.7c0-3.1,2.5-5.7,5.6-5.7h84.1c5.7,0,11.5-4.7,11.5-10.4V218.1
	c0-5.7-5.8-10.4-11.5-10.4h-87.5c-5.7,0-10,4.7-10,10.4v122.7c0,11.9-11.3,21.7-23.2,21.7h-0.4c-11.9,0-21.6-9.7-21.6-21.7v-77.5
	c0-3.1,2.5-5.7,5.6-5.7c3.1,0,5.6,2.5,5.6,5.7v77.5c0,5.7,4.6,10.4,10.4,10.4h0.4c5.7,0,11.9-4.7,11.9-10.4V218.1
	c0-12,9.4-21.4,21.3-21.4h87.5c11.9,0,22.8,9.4,22.8,21.4v122.7C-196.4,352.8-207.2,362.5-219.2,362.5z M-228.3,242h-68.7
	c-3.1,0-5.6-2.5-5.6-5.7c0-3.1,2.5-5.7,5.6-5.7h68.7c3.1,0,5.6,2.5,5.6,5.7C-222.7,239.5-225.2,242-228.3,242z M-228.3,268.4h-68.7
	c-3.1,0-5.6-2.5-5.6-5.6c0-3.1,2.5-5.7,5.6-5.7h68.7c3.1,0,5.6,2.5,5.6,5.7C-222.7,265.8-225.2,268.4-228.3,268.4z M-228.3,294.7
	h-68.7c-3.1,0-5.6-2.5-5.6-5.7c0-3.1,2.5-5.7,5.6-5.7h68.7c3.1,0,5.6,2.5,5.6,5.7C-222.7,292.2-225.2,294.7-228.3,294.7z
	 M-228.3,321.1h-68.7c-3.1,0-5.6-2.5-5.6-5.7c0-3.1,2.5-5.7,5.6-5.7h68.7c3.1,0,5.6,2.5,5.6,5.7
	C-222.7,318.6-225.2,321.1-228.3,321.1z"/>
</svg>
