<?xml version="1.0" standalone="no"?><!DOCTYPE svg PUBLIC "-//W3C//DTD SVG 1.1//EN" "http://www.w3.org/Graphics/SVG/1.1/DTD/svg11.dtd"><svg class="icon" width="200px" height="200.00px" viewBox="0 0 1024 1024" version="1.1" xmlns="http://www.w3.org/2000/svg"><path d="M565.279744 379.616256c-30.790656-24.911872-67.429376-44.51328-108.78464-56.701952-6.847488-1.997824-13.710336-3.695616-20.58752-5.245952-1.682432-0.382976-3.3792-0.749568-5.0944-1.117184-6.793216-1.414144-13.621248-2.678784-20.41344-3.679232-0.51712-0.065536-1.000448-0.100352-1.501184-0.166912-6.4512-0.915456-12.886016-1.563648-19.318784-2.065408-1.664-0.116736-3.324928-0.267264-4.987904-0.364544-6.772736-0.4352-13.528064-0.700416-20.268032-0.700416-0.712704 0-1.39264 0.017408-2.072576 0.017408-6.807552 0.0512-13.56288 0.316416-20.286464 0.782336-1.338368 0.0512-2.676736 0.149504-4.020224 0.234496-1.856512 0.149504-3.663872 0.432128-5.504 0.631808-5.165056 0.484352-10.31168 0.966656-15.423488 1.716224-1.358848 0.19968-2.71872 0.415744-4.074496 0.648192-6.807552 1.0496-13.600768 2.297856-20.286464 3.796992-0.3584 0.06656-0.750592 0.116736-1.088512 0.216064-6.955008 1.565696-13.797376 3.431424-20.571136 5.444608-1.394688 0.400384-2.76992 0.800768-4.146176 1.232896-6.66624 2.06336-13.227008 4.312064-19.713024 6.810624-0.91136 0.349184-1.841152 0.73216-2.735104 1.081344-6.076416 2.399232-12.045312 4.946944-17.926144 7.71072-0.91136 0.401408-1.840128 0.784384-2.714624 1.231872-6.239232 2.980864-12.350464 6.162432-18.356224 9.54368-1.216512 0.681984-2.429952 1.364992-3.646464 2.064384-6.0416 3.514368-12.027904 7.159808-17.837056 11.057152-0.212992 0.13312-0.393216 0.2816-0.607232 0.415744-5.649408 3.796992-11.134976 7.876608-16.495616 12.022784-1.038336 0.799744-2.072576 1.58208-3.093504 2.399232-5.307392 4.22912-10.509312 8.675328-15.512576 13.254656-0.928768 0.848896-1.785856 1.665024-2.679808 2.51392-4.754432 4.463616-9.401344 9.059328-13.850624 13.822976-0.429056 0.46592-0.87552 0.898048-1.304576 1.364992-4.647936 5.045248-9.078784 10.290176-13.350912 15.702016-0.91136 1.115136-1.804288 2.231296-2.69824 3.414016-4.18304 5.39648-8.220672 10.94144-12.010496 16.668672-0.482304 0.715776-0.928768 1.481728-1.411072 2.214912-3.483648 5.361664-6.772736 10.891264-9.901056 16.502784-0.589824 1.032192-1.19808 2.065408-1.753088 3.130368-3.268608 6.029312-6.290432 12.224512-9.112576 18.537472-0.589824 1.332224-1.16224 2.664448-1.733632 3.994624-2.788352 6.578176-5.450752 13.221888-7.7568 20.06528C19.46112 660.7104 109.25056 821.671936 271.210496 869.348352c6.863872 2.01728 13.745152 3.714048 20.64384 5.264384 1.642496 0.381952 3.305472 0.74752 4.948992 1.097728 6.862848 1.432576 13.709312 2.679808 20.53632 3.679232 0.464896 0.067584 0.910336 0.11776 1.37728 0.16896 6.46656 0.896 12.975104 1.54624 19.442688 2.06336 1.645568 0.134144 3.289088 0.268288 4.933632 0.365568 6.792192 0.451584 13.58336 0.700416 20.32128 0.734208 0.69632 0 1.393664-0.0512 2.072576-0.0512 6.77376-0.050176 13.528064-0.299008 20.248576-0.748544 1.357824-0.100352 2.69824-0.165888 4.056064-0.267264 7.023616-0.566272 13.976576-1.34656 20.892672-2.330624 1.376256-0.21504 2.753536-0.432128 4.1472-0.664576 6.771712-1.06496 13.51168-2.281472 20.178944-3.762176 0.393216-0.101376 0.766976-0.167936 1.14176-0.25088 6.933504-1.565696 13.779968-3.41504 20.537344-5.409792 1.411072-0.418816 2.787328-0.850944 4.200448-1.284096 6.6304-2.050048 13.169664-4.265984 19.641344-6.762496 0.965632-0.381952 1.929216-0.765952 2.87744-1.14688 6.00576-2.36544 11.922432-4.9152 17.728512-7.612416 0.949248-0.432128 1.91488-0.848896 2.843648-1.316864 6.238208-2.963456 12.311552-6.144 18.301952-9.475072 1.251328-0.698368 2.464768-1.415168 3.697664-2.128896 6.02112-3.4816 12.010496-7.110656 17.78176-10.975232 0.252928-0.196608 0.500736-0.381952 0.78848-0.548864 5.576704-3.796992 10.974208-7.779328 16.280576-11.906048 1.051648-0.818176 2.143232-1.615872 3.197952-2.46784 5.291008-4.226048 10.436608-8.623104 15.461376-13.186048 0.913408-0.867328 1.821696-1.73056 2.73408-2.59584 4.71552-4.430848 9.293824-8.958976 13.723648-13.707264 0.466944-0.498688 0.930816-0.950272 1.416192-1.465344 4.610048-5.028864 9.024512-10.276864 13.293568-15.604736 0.927744-1.165312 1.842176-2.328576 2.752512-3.515392 4.164608-5.376 8.169472-10.9056 11.973632-16.601088 0.50176-0.764928 0.946176-1.529856 1.446912-2.296832 3.469312-5.330944 6.739968-10.80832 9.831424-16.386048 0.608256-1.084416 1.231872-2.1504 1.821696-3.229696 3.234816-6.013952 6.25664-12.19072 9.080832-18.468864 0.586752-1.345536 1.163264-2.7136 1.729536-4.046848 2.804736-6.55872 5.451776-13.20448 7.77728-20.032512C695.179264 570.103808 655.072256 452.219904 565.279744 379.616256zM262.310912 530.453504c-32.848896 0-59.497472-24.829952-59.497472-55.420928 0-30.574592 26.647552-55.436288 59.497472-55.436288 32.832512 0 59.460608 24.860672 59.460608 55.436288C321.770496 505.623552 295.1424 530.453504 262.310912 530.453504z"  /><path d="M968.895488 200.865792c-0.4096-1.798144-2.000896-3.163136-3.986432-3.39456l-51.149824-5.927936-11.834368-46.262272c-0.407552-1.799168-2.020352-3.115008-4.001792-3.330048-1.947648-0.200704-3.842048 0.815104-4.680704 2.46272l-21.84192 42.99776-51.36384-4.046848c-1.96608-0.149504-3.82464 0.866304-4.629504 2.547712-0.802816 1.696768-0.342016 3.695616 1.088512 4.94592l37.605376 32.52224-19.893248 43.697152c-0.751616 1.731584-0.304128 3.679232 1.163264 4.912128 1.465344 1.232896 3.608576 1.481728 5.357568 0.616448l45.113344-22.94784 39.067648 31.108096c0.73216 0.600064 1.608704 0.948224 2.537472 1.033216 0.966656 0.098304 1.949696-0.084992 2.825216-0.567296 1.681408-0.899072 2.588672-2.7648 2.217984-4.545536l-9.797632-46.6432 44.040192-24.562688C968.429568 204.530688 969.306112 202.682368 968.895488 200.865792z"  /><path d="M629.768192 157.553664c-59.838464-32.637952-109.612032-1.282048-128.648192 28.092416l-19.372032 30.825472c-2.323456 3.679232-3.306496 7.693312-3.323904 11.671552-60.391424-16.30208-112.310272-16.151552-118.135808 0.982016-0.608256 1.7664-0.5376 3.680256-0.145408 5.66272l-1.60768-0.46592-17.890304 52.738048c7.667712-0.498688 15.371264-0.86528 23.146496-0.86528l0.017408 0c33.886208 0 67.629056 4.862976 100.245504 14.454784 41.086976 12.106752 77.816832 31.055872 109.377536 55.002112l17.892352-52.788224-1.626112-0.484352c1.553408-1.414144 2.787328-2.96448 3.39456-4.745216 4.932608-14.521344-24.843264-36.801536-70.276096-54.820864 0.770048-0.881664 1.538048-1.747968 2.18112-2.747392l19.178496-30.541824c3.57376-5.494784 23.180288-31.905792 60.30336-11.689984 1.517568 0.832512 110.843904 59.715584 194.860032 59.715584 4.127744 0 8.220672-0.149504 12.19072-0.45056l12.65152-27.759616-21.538816-18.61632C757.590016 211.874816 681.347072 185.679872 629.768192 157.553664z"  /></svg>