<?xml version="1.0" encoding="utf-8"?>
<!-- Generator: Adobe Illustrator 18.1.0, SVG Export Plug-In . SVG Version: 6.00 Build 0)  -->
<svg version="1.1" id="图层_1" xmlns="http://www.w3.org/2000/svg" xmlns:xlink="http://www.w3.org/1999/xlink" x="0px" y="0px"
	 viewBox="-205 297 200 200" enable-background="new -205 297 200 200" xml:space="preserve">
<path fill="#54C932" d="M-24.6,364.8c-8.7-20.2-24.9-36.4-45.1-45.1c5.5-4.3,12.3-6.9,19.8-6.9c17.7,0,32.1,14.4,32.1,32.1
	C-17.7,352.5-20.3,359.4-24.6,364.8z M-25.9,400.4c0,21.1-8.3,40.2-21.7,54.4l11.1,11.1c1.5,1.5,2.4,3.5,2.4,5.7
	c0,4.5-3.6,8.1-8.1,8.1c-2.2,0-4.3-0.9-5.7-2.4l-11.9-11.9c-12.9,9-28.5,14.3-45.3,14.3c-16.8,0-32.4-5.3-45.3-14.2l-11.8,11.8
	c-1.5,1.5-3.5,2.4-5.8,2.4c-4.5,0-8.2-3.7-8.2-8.2c0-2.3,0.9-4.3,2.4-5.8l11-11c-13.4-14.2-21.6-33.3-21.6-54.3
	c0-43.8,35.5-79.3,79.3-79.3C-61.4,321.1-25.9,356.6-25.9,400.4z M-105.2,337.5c-34.7,0-62.9,28.2-62.9,62.9s28.2,62.9,62.9,62.9
	c34.7,0,62.9-28.2,62.9-62.9S-70.5,337.5-105.2,337.5z M-72.4,408.6h-32.8c-4.5,0-8.2-3.7-8.2-8.2v-43.8c0-4.5,3.7-8.2,8.2-8.2
	c4.5,0,8.2,3.7,8.2,8.2v35.6h24.6c4.5,0,8.2,3.7,8.2,8.2C-64.2,404.9-67.9,408.6-72.4,408.6z M-185.7,365.9c-4.4-5.6-7-12.6-7-20.3
	c0-18.1,14.7-32.8,32.8-32.8c7.7,0,14.7,2.6,20.3,7C-160.3,328.7-176.8,345.3-185.7,365.9z"/>
</svg>
