<?xml version="1.0" encoding="utf-8"?>
<!-- Generator: Adobe Illustrator 19.0.0, SVG Export Plug-In . SVG Version: 6.00 Build 0)  -->
<svg version="1.1" id="图层_1" xmlns="http://www.w3.org/2000/svg" xmlns:xlink="http://www.w3.org/1999/xlink" x="0px" y="0px"
	 viewBox="-379 181 200 200" style="enable-background:new -379 181 200 200;" xml:space="preserve">
<style type="text/css">
	.st0{fill:#7F7F7F;}
</style>
<path class="st0" d="M-245.1,248.8c-1.3-1.2-2.9-1.9-4.7-1.9c-1.8,0-3.4,0.7-4.7,1.9l-17.3,17.1l-17.3-17.1
	c-1.2-1.2-2.9-1.9-4.7-1.9c-1.8,0-3.4,0.7-4.7,1.9c-2.6,2.5-2.6,6.7,0,9.2l10.7,10.6h-10.5c-0.7,0-1.3,0.6-1.3,1.3v10.5
	c0,0.7,0.6,1.3,1.3,1.3h19.8v8.7h-19.8c-0.7,0-1.3,0.6-1.3,1.3v10.5c0,0.7,0.6,1.3,1.3,1.3h19.8V323c0,3.6,3,6.5,6.6,6.5
	c3.6,0,6.6-2.9,6.6-6.5v-19.6h19.8c0.7,0,1.3-0.6,1.3-1.3v-10.5c0-0.7-0.6-1.3-1.3-1.3h-19.8v-8.7h19.8c0.7,0,1.3-0.6,1.3-1.3v-10.5
	c0-0.7-0.6-1.3-1.3-1.3h-10.5l10.8-10.6C-242.6,255.4-242.6,251.3-245.1,248.8 M-191.2,247.4c-4.4-10.3-10.7-19.5-18.7-27.5
	c-8-7.9-17.4-14.2-27.8-18.5c-10.8-4.5-22.2-6.8-34-6.8c-11.8,0-23.2,2.3-34,6.8c-10.4,4.3-19.8,10.6-27.8,18.5
	c-8,7.9-14.3,17.2-18.7,27.5c-1.8,4.2-3.3,8.6-4.4,13l-4.4-9.7c-1.1-2.4-3.4-3.9-6-3.9c-0.9,0-1.8,0.2-2.7,0.6
	c-1.6,0.7-2.8,2-3.5,3.6c-0.6,1.6-0.6,3.4,0.1,5l13.5,30c0.1,0.2,0.1,0.3,0.2,0.5c0,0,0,0,0,0.1c0.1,0.1,0.2,0.3,0.2,0.4
	c0,0,0,0,0,0c0.1,0.1,0.1,0.2,0.2,0.3c0,0,0.1,0.1,0.1,0.1c0.1,0.1,0.1,0.1,0.2,0.2c0.1,0.1,0.2,0.2,0.2,0.3l0,0l0.1,0.1
	c0,0,0.1,0.1,0.1,0.1l0,0c0.1,0,0.1,0.1,0.2,0.2c0,0,0.1,0.1,0.1,0.1c0.1,0.1,0.2,0.1,0.3,0.2c0,0,0,0,0.1,0.1
	c0.1,0.1,0.2,0.2,0.4,0.3c0,0,0,0,0,0c0.1,0.1,0.2,0.1,0.4,0.2l0,0c0.3,0.1,0.5,0.3,0.8,0.4c0,0,0,0,0,0c0.1,0,0.3,0.1,0.4,0.1l0,0
	l0,0c0.1,0,0.2,0.1,0.4,0.1h0l0.1,0c0,0,0,0,0,0c0.1,0,0.3,0.1,0.4,0.1c0,0,0.1,0,0.1,0l0,0c0.1,0,0.2,0,0.2,0l0,0
	c0.1,0,0.1,0,0.2,0c0.1,0,0.2,0,0.2,0h0c0,0,0.1,0,0.1,0c0.2,0,0.4,0,0.6,0l0,0h0c0.2,0,0.4,0,0.5-0.1c0,0,0.1,0,0.1,0
	c0.2,0,0.3-0.1,0.5-0.1c0,0,0.1,0,0.1,0c0,0,0,0,0,0c0.1,0,0.3-0.1,0.4-0.1l0,0c0,0,0.1,0,0.1,0c0.1,0,0.2-0.1,0.3-0.1c0,0,0,0,0,0
	c0,0,0,0,0.1,0c0.1,0,0.1,0,0.2-0.1c0.2-0.1,0.3-0.1,0.4-0.2c0,0,0,0,0.1,0l0,0c0.4-0.2,0.7-0.5,1-0.7l25-21.7
	c2.7-2.4,3-6.5,0.6-9.2c-1.3-1.4-3.1-2.2-5-2.2c-1.6,0-3.1,0.6-4.3,1.6l-11.9,10.3c6.6-34.2,37.4-59.5,72.9-59.5
	c40.9,0,74.2,32.9,74.2,73.4c0,40.5-33.3,73.4-74.2,73.4c-17.7,0-34.9-6.3-48.3-17.6c-1.2-1-2.7-1.6-4.3-1.6c-1.9,0-3.8,0.8-5,2.3
	c-2.4,2.7-2,6.8,0.7,9.2c15.8,13.4,36,20.8,56.9,20.8c11.8,0,23.2-2.3,34-6.8c10.4-4.4,19.8-10.6,27.8-18.5
	c8-7.9,14.3-17.2,18.7-27.5c4.6-10.7,6.9-22,6.9-33.6C-184.4,269.3-186.7,258-191.2,247.4L-191.2,247.4z"/>
</svg>
