<?xml version="1.0" standalone="no"?><!DOCTYPE svg PUBLIC "-//W3C//DTD SVG 1.1//EN" "http://www.w3.org/Graphics/SVG/1.1/DTD/svg11.dtd"><svg class="icon" width="200px" height="200.00px" viewBox="0 0 1024 1024" version="1.1" xmlns="http://www.w3.org/2000/svg"><path d="M693.323473 558.64946c-105.617714 98.17395-206.597613 225.340211-206.597613 225.340211s-44.96387-66.576301-96.553919-131.354654c-51.420173-64.566528-109.466526-131.3567-109.466526-131.3567l65.68053-65.678862 140.339915 150.940734c0 0 69.613256-59.990303 151.371608-126.738519C738.52169 397.785725 915.62334 280.449343 915.62334 280.449343l43.789066 43.788296C959.282441 324.237639 803.200361 456.539874 693.323473 558.64946zM784.257164 149.087527 346.385944 149.087527 346.385944 324.237639 171.237865 324.237639l0 525.431917 613.019299 0L784.257164 546.377972c13.020058-14.923898 27.623236-30.829146 43.788043-46.991244 13.961538-13.982456 28.843067-28.094872 43.789066-41.778522l0 435.846576c0 24.159236-19.60735 43.787272-43.789066 43.787272l-700.594361 0c-24.181716 0-43.78702-19.628036-43.78702-43.787272L83.663826 283.271622l216.305094-221.75864L828.045207 61.512982c24.181716 0 43.789066 19.585057 43.789066 43.787272l0 139.016147c-24.824379 17.10354-56.898156 39.747259-87.577109 63.029522L784.257164 149.087527z" /></svg>