<?xml version="1.0" standalone="no"?><!DOCTYPE svg PUBLIC "-//W3C//DTD SVG 1.1//EN" "http://www.w3.org/Graphics/SVG/1.1/DTD/svg11.dtd"><svg class="icon" width="200px" height="200.00px" viewBox="0 0 1024 1024" version="1.1" xmlns="http://www.w3.org/2000/svg"><path d="M903.825478 533.599947l-783.637654 0c-16.641005 0-30.147624-13.494339-30.147624-30.133298 0-16.625656 13.507642-30.148647 30.147624-30.148647l783.637654 0c16.670681 0 30.133298 13.522991 30.133298 30.148647C933.958776 520.105608 920.49616 533.599947 903.825478 533.599947M813.426609 895.284453 647.261125 895.284453c-16.670681 0-30.163997-13.462616-30.163997-30.132274 0-16.670681 13.493316-30.163997 30.163997-30.163997l166.166507 0c16.641005 0 30.102598-13.492292 30.102598-30.132274L843.530231 654.16179c0-16.671705 13.492292-30.133298 30.162974-30.133298 16.672728 0 30.133298 13.461593 30.133298 30.133298l0 150.694117C903.825478 854.717526 863.258551 895.284453 813.426609 895.284453M382.300544 895.284453 210.602044 895.284453c-49.861618 0-90.413196-40.566928-90.413196-90.428545L120.188848 654.16179c0-16.671705 13.507642-30.133298 30.147624-30.133298 16.641005 0 30.117948 13.461593 30.117948 30.133298l0 150.694117c0 16.641005 13.537318 30.132274 30.147624 30.132274L382.300544 834.988182c16.670681 0 30.163997 13.493316 30.163997 30.163997C412.463518 881.821837 398.970202 895.284453 382.300544 895.284453M150.336472 382.903783c-16.639982 0-30.147624-13.507642-30.147624-30.148647L120.188848 202.061019c0-49.861618 40.552601-90.413196 90.413196-90.413196L382.300544 111.647823c16.670681 0 30.163997 13.506619 30.163997 30.147624 0 16.610306-13.493316 30.117948-30.163997 30.117948L210.602044 171.913395c-16.610306 0-30.147624 13.537318-30.147624 30.147624l0 150.694117C180.45442 369.396141 166.976454 382.903783 150.336472 382.903783M873.692181 382.903783c-16.670681 0-30.162974-13.507642-30.162974-30.148647L843.529207 202.061019c0-16.610306-13.461593-30.147624-30.102598-30.147624L647.261125 171.913395c-16.670681 0-30.163997-13.507642-30.163997-30.117948 0-16.641005 13.493316-30.147624 30.163997-30.147624l166.166507 0c49.830919 0 90.39887 40.552601 90.39887 90.413196l0 150.694117C903.825478 369.396141 890.364909 382.903783 873.692181 382.903783" /></svg>