<?xml version="1.0" standalone="no"?><!DOCTYPE svg PUBLIC "-//W3C//DTD SVG 1.1//EN" "http://www.w3.org/Graphics/SVG/1.1/DTD/svg11.dtd"><svg class="icon" width="200px" height="200.00px" viewBox="0 0 1024 1024" version="1.1" xmlns="http://www.w3.org/2000/svg"><path fill="#000000" d="M869.955578 542.524201 684.029028 542.524201c-3.799536 0-28.16855 0.685615-36.230156-3.761674-14.060227-7.757684-18.733667-24.789593-10.654664-38.161135l206.069309-310.340117c8.15268-13.494339 25.947975-17.96721 39.912012-10.263761 14.060227 7.757684 18.733667 24.789593 10.653641 38.161135l-174.84619 263.317151 189.009771 0c3.799536 0 28.16855-0.685615 36.230156 3.761674 14.060227 7.757684 18.733667 24.789593 10.654664 38.161135L728.409818 833.738725c-8.15268 13.494339-25.947975 17.96721-39.912012 10.263761-14.060227-7.757684-18.733667-24.789593-10.654664-38.161135L869.955578 542.524201zM93.894484 237.283218c-16.836457 0-30.485315 13.548574-30.485315 30.524201 0 16.857946 13.718443 30.524201 30.485315 30.524201l529.160845 0c16.836457 0 30.485315-13.548574 30.485315-30.524201 0-16.857946-13.718443-30.524201-30.485315-30.524201L93.894484 237.283218zM93.959975 481.475799c-16.872273 0-30.550807 13.548574-30.550807 30.524201 0 16.857946 13.57211 30.524201 30.550807 30.524201l427.28355 0c16.872273 0 30.550807-13.548574 30.550807-30.524201 0-16.857946-13.57211-30.524201-30.550807-30.524201L93.959975 481.475799zM93.731778 725.668381c-16.746406 0-30.322609 13.548574-30.322609 30.524201 0 16.857946 13.58132 30.524201 30.322609 30.524201l488.788346 0c16.746406 0 30.322609-13.548574 30.322609-30.524201 0-16.857946-13.58132-30.524201-30.322609-30.524201L93.731778 725.668381z" /></svg>