<?xml version="1.0" standalone="no"?><!DOCTYPE svg PUBLIC "-//W3C//DTD SVG 1.1//EN" "http://www.w3.org/Graphics/SVG/1.1/DTD/svg11.dtd"><svg class="icon" width="200px" height="200.00px" viewBox="0 0 1024 1024" version="1.1" xmlns="http://www.w3.org/2000/svg"><path fill="#000000" d="M818.396058 929.397389 387.788563 929.397389c-15.964231 0-28.893211-12.964266-28.893211-28.935006 0-15.978926 12.92898-28.933983 28.893211-28.933983l430.607495 0c29.222729 0 58.816934-23.813359 58.816934-53.087079L877.212991 190.18248c0-29.27372-29.594204-53.087079-58.816934-53.087079L370.160368 137.095401c-29.221706 0-51.390496 23.813359-51.390496 53.087079l0 628.257817c0 61.180408-57.715811 110.957091-118.795367 110.957091l-2.010879 0c-61.08058 0-110.772318-49.776683-110.772318-110.957091L87.191307 421.603177c0-15.97074 12.930004-28.935006 28.885024-28.935006 15.963207 0 28.893211 12.964266 28.893211 28.935006l0 396.83712c0 29.272697 23.771354 53.087079 52.994083 53.087079l2.010879 0c29.221706 0 61.018155-23.813359 61.018155-53.087079L260.99266 190.18248c0-61.190641 48.080988-109.346407 109.167708-109.346407l448.23569 0c61.087743 0 116.586982 48.15679 116.586982 109.346407l0 628.257817C934.98304 879.620705 879.483801 929.397389 818.396058 929.397389zM771.354791 312.309982 419.480631 312.309982c-15.963207 0-28.892188-12.963243-28.892188-28.935006 0-15.97074 12.92898-28.935006 28.892188-28.935006l351.87416 0c15.955021 0 28.885024 12.964266 28.885024 28.935006C800.239815 299.346739 787.309812 312.309982 771.354791 312.309982zM771.354791 447.333188 419.480631 447.333188c-15.963207 0-28.892188-12.95608-28.892188-28.92682 0-15.97074 12.92898-28.935006 28.892188-28.935006l351.87416 0c15.955021 0 28.885024 12.964266 28.885024 28.935006C800.239815 434.377108 787.309812 447.333188 771.354791 447.333188zM771.354791 582.363558 419.480631 582.363558c-15.963207 0-28.892188-12.955056-28.892188-28.933983 0-15.97074 12.92898-28.935006 28.892188-28.935006l351.87416 0c15.955021 0 28.885024 12.964266 28.885024 28.935006C800.239815 569.408501 787.309812 582.363558 771.354791 582.363558zM771.354791 717.395974 419.480631 717.395974c-15.963207 0-28.892188-12.964266-28.892188-28.935006 0-15.971763 12.92898-28.933983 28.892188-28.933983l351.87416 0c15.955021 0 28.885024 12.96222 28.885024 28.933983C800.239815 704.431707 787.309812 717.395974 771.354791 717.395974z" /></svg>