<?xml version="1.0" encoding="utf-8"?>
<!-- Generator: Adobe Illustrator 18.1.0, SVG Export Plug-In . SVG Version: 6.00 Build 0)  -->
<svg version="1.1" id="图层_1" xmlns="http://www.w3.org/2000/svg" xmlns:xlink="http://www.w3.org/1999/xlink" x="0px" y="0px"
	 viewBox="-205 297 200 200" enable-background="new -205 297 200 200" xml:space="preserve">
<g>
	<path opacity="0.8" fill="#FF0000" enable-background="new    " d="M-86.7,371.3c-5.7-4.7-12.6-8.3-20.3-10.6
		c-1.2-0.4-2.6-0.7-3.8-1c-0.3-0.1-0.7-0.1-1-0.2c-1.2-0.3-2.6-0.5-3.8-0.7c-0.1,0-0.2,0-0.3,0c-1.2-0.2-2.4-0.3-3.6-0.4
		c-0.3,0-0.6-0.1-1-0.1c-1.2-0.1-2.5-0.1-3.8-0.1c-0.1,0-0.3,0-0.4,0c-1.2,0-2.5,0.1-3.8,0.2c-0.3,0-0.5,0-0.8,0
		c-0.4,0-0.7,0.1-1.1,0.1c-1,0.1-1.9,0.2-2.9,0.3c-0.3,0-0.5,0.1-0.8,0.1c-1.2,0.2-2.6,0.4-3.8,0.7c-0.1,0-0.1,0-0.2,0
		c-1.3,0.3-2.6,0.7-3.8,1.1c-0.3,0.1-0.5,0.2-0.8,0.2c-1.2,0.4-2.5,0.8-3.7,1.2c-0.2,0.1-0.4,0.1-0.5,0.2c-1.1,0.5-2.3,1-3.4,1.4
		c-0.2,0.1-0.4,0.2-0.5,0.2c-1.1,0.6-2.3,1.1-3.4,1.8c-0.2,0.1-0.5,0.3-0.7,0.4c-1.1,0.7-2.2,1.3-3.4,2.1l-0.1,0.1
		c-1.1,0.7-2.1,1.4-3.1,2.2c-0.2,0.2-0.4,0.3-0.6,0.5c-1,0.8-2,1.6-2.9,2.5c-0.2,0.2-0.3,0.3-0.5,0.5c-0.9,0.9-1.7,1.7-2.6,2.6
		c-0.1,0.1-0.2,0.2-0.3,0.3c-0.9,1-1.7,1.9-2.5,3c-0.2,0.2-0.4,0.4-0.5,0.7c-0.8,1.1-1.5,2-2.2,3.2c-0.1,0.1-0.2,0.3-0.3,0.4
		c-0.7,1-1.2,2-1.8,3.1c-0.1,0.2-0.2,0.4-0.3,0.6c-0.6,1.1-1.1,2.3-1.7,3.4c-0.1,0.3-0.2,0.5-0.3,0.8c-0.5,1.2-1.1,2.5-1.4,3.7
		c-9.6,28.3,7.2,58.3,37.5,67.2c1.2,0.4,2.6,0.7,3.8,1c0.3,0.1,0.6,0.1,1,0.2c1.2,0.3,2.6,0.5,3.8,0.7c0.1,0,0.2,0,0.3,0
		c1.2,0.2,2.4,0.3,3.6,0.4c0.3,0,0.6,0.1,1,0.1c1.2,0.1,2.6,0.1,3.8,0.1c0.1,0,0.3,0,0.4,0c1.2,0,2.5-0.1,3.8-0.1
		c0.3,0,0.5,0,0.8-0.1c1.3-0.1,2.6-0.3,3.9-0.5c0.3,0,0.5-0.1,0.8-0.1c1.2-0.2,2.5-0.4,3.7-0.7c0.1,0,0.1,0,0.2,0
		c1.3-0.3,2.6-0.7,3.8-1.1c0.3-0.1,0.5-0.2,0.8-0.3c1.2-0.4,2.5-0.8,3.6-1.2c0.2-0.1,0.4-0.1,0.6-0.2c1.1-0.5,2.2-1,3.4-1.4
		c0.2-0.1,0.4-0.2,0.6-0.3c1.1-0.6,2.3-1.1,3.4-1.8c0.2-0.1,0.5-0.3,0.7-0.4c1.1-0.7,2.2-1.3,3.4-2c0,0,0.1-0.1,0.2-0.1
		c1.1-0.7,2-1.4,3.1-2.2c0.2-0.2,0.4-0.3,0.6-0.5c1-0.8,1.9-1.6,2.9-2.5c0.2-0.2,0.4-0.3,0.5-0.5c0.9-0.9,1.7-1.6,2.6-2.6
		c0.1-0.1,0.2-0.2,0.3-0.3c0.9-1,1.7-1.9,2.5-2.9c0.2-0.2,0.4-0.5,0.5-0.7c0.8-1,1.5-2,2.2-3.1c0.1-0.1,0.2-0.3,0.3-0.4
		c0.7-1,1.2-2,1.8-3.1c0.1-0.2,0.2-0.4,0.4-0.6c0.6-1.1,1.1-2.3,1.7-3.4c0.1-0.3,0.2-0.5,0.3-0.8c0.5-1.2,1.1-2.5,1.4-3.7
		C-62.4,406.9-70,384.9-86.7,371.3z M-143.4,399.5c-6.1,0-11.1-4.6-11.1-10.3c0-5.7,5-10.3,11.1-10.3c6.1,0,11.1,4.7,11.1,10.3
		C-132.3,394.9-137.3,399.5-143.4,399.5z"/>
	<path opacity="0.8" fill="#FF0000" enable-background="new    " d="M-11.2,337.9c-0.1-0.4-0.4-0.6-0.8-0.7l-9.6-1.1l-2.2-8.6
		c-0.1-0.4-0.4-0.6-0.8-0.7c-0.4,0-0.8,0.2-0.9,0.5l-4.1,8l-9.6-0.8c-0.4,0-0.7,0.2-0.9,0.5c-0.2,0.3-0.1,0.7,0.2,1l7,6.1l-3.7,8.1
		c-0.1,0.3-0.1,0.7,0.2,1c0.3,0.2,0.7,0.3,1,0.1l8.4-4.3l7.3,5.8c0.1,0.1,0.3,0.2,0.5,0.2c0.2,0,0.4,0,0.6-0.1
		c0.3-0.2,0.5-0.5,0.4-0.9l-1.8-8.7l8.2-4.6C-11.3,338.5-11.2,338.3-11.2,337.9z"/>
	<path opacity="0.8" fill="#FF0000" enable-background="new    " d="M-74.6,329.8c-11.2-6.1-20.5-0.3-24,5.3l-3.6,5.7
		c-0.5,0.7-0.6,1.4-0.6,2.2c-11.3-3.1-21-3.1-22.1,0.2c-0.1,0.3-0.1,0.7,0,1.1l-0.3-0.1l-3.4,9.9c1.4-0.1,2.9-0.2,4.3-0.2l0,0
		c6.3,0,12.6,0.9,18.8,2.7c7.7,2.3,14.6,5.8,20.5,10.2l3.4-9.9l-0.3-0.1c0.3-0.3,0.5-0.6,0.7-0.9c1-2.7-4.7-6.9-13.1-10.2
		c0.2-0.2,0.3-0.3,0.4-0.5l3.5-5.7c0.7-1.1,4.3-5.9,11.3-2.2c0.3,0.2,20.7,11.2,36.5,11.2c0.8,0,1.5,0,2.3-0.1l2.4-5.2l-4-3.4
		C-50.7,340-65,335.1-74.6,329.8z"/>
</g>
</svg>
