<?xml version="1.0" encoding="UTF-8" standalone="no"?>
<svg width="50px" height="50px" viewBox="0 0 50 50" version="1.1" xmlns="http://www.w3.org/2000/svg" xmlns:xlink="http://www.w3.org/1999/xlink">
    <!-- Generator: Sketch 3.8.3 (29802) - http://www.bohemiancoding.com/sketch -->
    <title>选中图标</title>
    <desc>Created with Sketch.</desc>
    <defs></defs>
    <g id="购物车" stroke="none" stroke-width="1" fill="none" fill-rule="evenodd" fill-opacity="0.8">
        <g id="购物车——部分选择商品" transform="translate(-32.000000, -631.000000)" fill="#EB6000">
            <g id="购物车" transform="translate(0.000000, 128.000000)">
                <g id="商品" transform="translate(0.000000, 455.000000)">
                    <g id="选中图标" transform="translate(32.000000, 48.000000)">
                        <path d="M25,0 C11.2148148,0 0,11.2148148 0,25 C0,38.7851852 11.2148148,50 25,50 C38.7851852,50 50,38.7851852 50,25 C50,11.2148148 38.7851852,0 25,0 L25,0 Z M40.7944444,18.0407407 L22.5962963,36.2833333 C21.4129629,37.4018518 19.5055556,37.4018518 18.3203703,36.2833333 L18.1666666,36.1074074 L9.22037033,27.1185185 C8.037037,25.9555556 8.037037,24.0277778 9.22037033,22.8648148 C10.3833333,21.6814814 12.3111111,21.6814814 13.4962963,22.9092592 L20.4462963,29.8592592 L36.5407407,13.7648148 C37.7037037,12.5814814 39.6314814,12.5814814 40.7944444,13.7648148 C41.9574074,14.95 41.9574074,16.8574074 40.7944444,18.0407407 L40.7944444,18.0407407 Z" id="Shape"></path>
                    </g>
                </g>
            </g>
        </g>
    </g>
</svg>